<svg width="350" height="350" viewBox="0 0 350 350" fill="none" xmlns="http://www.w3.org/2000/svg">
  <rect width="350" height="350" rx="10" fill="#118AB2" opacity="0.3"/>
  <circle cx="175" cy="175" r="150" fill="#118AB2" opacity="0.8"/>
  
  <!-- Body -->
  <ellipse cx="175" cy="200" rx="90" ry="70" fill="#73A5C6"/>
  
  <!-- Head -->
  <circle cx="175" cy="130" r="50" fill="#73A5C6"/>
  
  <!-- Ears -->
  <ellipse cx="120" cy="130" rx="30" ry="40" fill="#5D8CAE"/>
  <ellipse cx="230" cy="130" rx="30" ry="40" fill="#5D8CAE"/>
  
  <!-- Eyes -->
  <circle cx="160" cy="120" r="8" fill="white"/>
  <circle cx="190" cy="120" r="8" fill="white"/>
  <circle cx="160" cy="120" r="4" fill="#333"/>
  <circle cx="190" cy="120" r="4" fill="#333"/>
  
  <!-- Trunk -->
  <path d="M175 150 
           Q190 170 190 190
           Q190 210 175 220
           Q160 210 160 190
           Q160 170 175 150" 
      fill="#5D8CAE"/>
  
  <!-- Tusks -->
  <path d="M155 150 Q140 160 135 180" stroke="white" stroke-width="6" fill="none"/>
  <path d="M195 150 Q210 160 215 180" stroke="white" stroke-width="6" fill="none"/>
  
  <!-- Legs -->
  <rect x="145" y="240" width="20" height="50" rx="10" fill="#5D8CAE"/>
  <rect x="185" y="240" width="20" height="50" rx="10" fill="#5D8CAE"/>
  <rect x="130" y="240" width="20" height="45" rx="10" fill="#5D8CAE"/>
  <rect x="200" y="240" width="20" height="45" rx="10" fill="#5D8CAE"/>
</svg> 