<svg width="350" height="350" viewBox="0 0 350 350" fill="none" xmlns="http://www.w3.org/2000/svg">
  <rect width="350" height="350" rx="10" fill="#06D6A0" opacity="0.3"/>
  <circle cx="175" cy="175" r="150" fill="#06D6A0" opacity="0.8"/>
  
  <!-- Body -->
  <ellipse cx="175" cy="210" rx="80" ry="60" fill="#4CAF50"/>
  
  <!-- Pattern on body -->
  <circle cx="145" cy="190" r="10" fill="#388E3C"/>
  <circle cx="205" cy="190" r="10" fill="#388E3C"/>
  <circle cx="175" cy="220" r="10" fill="#388E3C"/>
  <circle cx="145" cy="230" r="10" fill="#388E3C"/>
  <circle cx="205" cy="230" r="10" fill="#388E3C"/>
  
  <!-- Head -->
  <circle cx="175" cy="150" r="50" fill="#4CAF50"/>
  
  <!-- Eyes -->
  <circle cx="155" cy="130" r="15" fill="white"/>
  <circle cx="195" cy="130" r="15" fill="white"/>
  <circle cx="155" cy="130" r="8" fill="#333"/>
  <circle cx="195" cy="130" r="8" fill="#333"/>
  <circle cx="158" cy="127" r="3" fill="white"/>
  <circle cx="198" cy="127" r="3" fill="white"/>
  
  <!-- Mouth -->
  <path d="M155 170 Q175 190 195 170" stroke="#388E3C" stroke-width="5" fill="none"/>
  
  <!-- Front legs -->
  <path d="M125 210 
           Q105 230 90 220" 
        stroke="#4CAF50" stroke-width="10" stroke-linecap="round" fill="none"/>
  <path d="M225 210 
           Q245 230 260 220" 
        stroke="#4CAF50" stroke-width="10" stroke-linecap="round" fill="none"/>
  
  <!-- Hind legs -->
  <path d="M130 250 
           Q115 280 100 290" 
        stroke="#4CAF50" stroke-width="12" stroke-linecap="round" fill="none"/>
  <path d="M220 250 
           Q235 280 250 290" 
        stroke="#4CAF50" stroke-width="12" stroke-linecap="round" fill="none"/>
  
  <!-- Feet -->
  <ellipse cx="95" cy="290" rx="15" ry="8" fill="#4CAF50"/>
  <ellipse cx="255" cy="290" rx="15" ry="8" fill="#4CAF50"/>
  
  <!-- Lily pad -->
  <ellipse cx="175" cy="300" rx="120" ry="30" fill="#81C784" opacity="0.7"/>
</svg> 