<svg width="350" height="350" viewBox="0 0 350 350" fill="none" xmlns="http://www.w3.org/2000/svg">
  <rect width="350" height="350" rx="10" fill="#EF476F" opacity="0.3"/>
  <circle cx="175" cy="175" r="150" fill="#EF476F" opacity="0.8"/>
  
  <!-- Body -->
  <ellipse cx="175" cy="250" rx="50" ry="40" fill="#FFC107"/>
  
  <!-- Spots pattern on body -->
  <circle cx="155" cy="235" r="8" fill="#E65100"/>
  <circle cx="195" cy="235" r="8" fill="#E65100"/>
  <circle cx="175" cy="260" r="8" fill="#E65100"/>
  <circle cx="150" cy="265" r="8" fill="#E65100"/>
  <circle cx="200" cy="265" r="8" fill="#E65100"/>
  
  <!-- Neck -->
  <rect x="165" y="100" width="20" height="150" rx="10" fill="#FFC107"/>
  
  <!-- Spots pattern on neck -->
  <circle cx="175" cy="120" r="6" fill="#E65100"/>
  <circle cx="175" cy="150" r="6" fill="#E65100"/>
  <circle cx="175" cy="180" r="6" fill="#E65100"/>
  <circle cx="175" cy="210" r="6" fill="#E65100"/>
  <circle cx="175" cy="240" r="6" fill="#E65100"/>
  
  <!-- Head -->
  <rect x="155" y="60" width="40" height="50" rx="20" fill="#FFC107"/>
  
  <!-- Ears -->
  <circle cx="155" cy="65" r="8" fill="#E65100"/>
  <circle cx="195" cy="65" r="8" fill="#E65100"/>
  
  <!-- Eyes -->
  <circle cx="165" cy="75" r="5" fill="white"/>
  <circle cx="185" cy="75" r="5" fill="white"/>
  <circle cx="165" cy="75" r="2" fill="#333"/>
  <circle cx="185" cy="75" r="2" fill="#333"/>
  
  <!-- Horns -->
  <circle cx="160" cy="55" r="5" fill="#5D4037"/>
  <circle cx="190" cy="55" r="5" fill="#5D4037"/>
  
  <!-- Legs -->
  <rect x="150" y="280" width="10" height="50" rx="5" fill="#FFC107"/>
  <rect x="190" y="280" width="10" height="50" rx="5" fill="#FFC107"/>
  <rect x="135" y="280" width="10" height="45" rx="5" fill="#FFC107"/>
  <rect x="205" y="280" width="10" height="45" rx="5" fill="#FFC107"/>
</svg> 