<svg width="350" height="350" viewBox="0 0 350 350" fill="none" xmlns="http://www.w3.org/2000/svg">
  <rect width="350" height="350" rx="10" fill="#FFD166" opacity="0.3"/>
  <circle cx="175" cy="175" r="150" fill="#FFD166" opacity="0.8"/>
  
  <!-- Mane -->
  <path d="M175 100 
           Q130 60 110 80 
           Q90 60 90 80
           Q60 90 70 110
           Q50 130 80 130
           Q60 160 80 170
           Q50 200 70 210
           Q60 250 90 240
           Q90 280 120 270
           Q130 300 175 270
           Q220 300 230 270
           Q260 280 260 240
           Q290 250 280 210
           Q300 200 270 170
           Q290 160 270 130
           Q300 130 280 110
           Q290 90 260 80
           Q260 60 240 80
           Q220 60 175 100Z" 
      fill="#FF9800"/>
  
  <!-- Face -->
  <circle cx="175" cy="175" r="90" fill="#FFD166"/>
  
  <!-- Eyes -->
  <circle cx="145" cy="155" r="15" fill="white"/>
  <circle cx="205" cy="155" r="15" fill="white"/>
  <circle cx="145" cy="155" r="8" fill="#333"/>
  <circle cx="205" cy="155" r="8" fill="#333"/>
  
  <!-- Nose -->
  <ellipse cx="175" cy="185" rx="15" ry="10" fill="#333"/>
  
  <!-- Mouth -->
  <path d="M160 210 Q175 225 190 210" stroke="#333" stroke-width="3" fill="none"/>
  
  <!-- Whiskers -->
  <path d="M155 190 L115 185" stroke="#333" stroke-width="2"/>
  <path d="M155 195 L115 195" stroke="#333" stroke-width="2"/>
  <path d="M155 200 L115 205" stroke="#333" stroke-width="2"/>
  <path d="M195 190 L235 185" stroke="#333" stroke-width="2"/>
  <path d="M195 195 L235 195" stroke="#333" stroke-width="2"/>
  <path d="M195 200 L235 205" stroke="#333" stroke-width="2"/>
</svg> 