<svg width="350" height="350" viewBox="0 0 350 350" fill="none" xmlns="http://www.w3.org/2000/svg">
  <rect width="350" height="350" rx="10" fill="#073B4C" opacity="0.3"/>
  <circle cx="175" cy="175" r="150" fill="#073B4C" opacity="0.8"/>
  
  <!-- Body -->
  <ellipse cx="175" cy="200" rx="60" ry="100" fill="#333"/>
  
  <!-- White Belly -->
  <ellipse cx="175" cy="210" rx="45" ry="85" fill="white"/>
  
  <!-- Head -->
  <circle cx="175" cy="110" r="45" fill="#333"/>
  
  <!-- Eyes -->
  <circle cx="160" cy="100" r="8" fill="white"/>
  <circle cx="190" cy="100" r="8" fill="white"/>
  <circle cx="160" cy="100" r="4" fill="#333"/>
  <circle cx="190" cy="100" r="4" fill="#333"/>
  
  <!-- Beak -->
  <path d="M165 115 L175 125 L185 115 Z" fill="#FFA726"/>
  
  <!-- Wings -->
  <path d="M115 160 
           Q140 180 145 230"
      stroke="#333" stroke-width="20" stroke-linecap="round" fill="none"/>
  
  <path d="M235 160 
           Q210 180 205 230"
      stroke="#333" stroke-width="20" stroke-linecap="round" fill="none"/>
  
  <!-- Feet -->
  <path d="M155 290 L145 310 H165 Z" fill="#FFA726"/>
  <path d="M195 290 L205 310 H185 Z" fill="#FFA726"/>
  
  <!-- Ice -->
  <ellipse cx="175" cy="315" rx="120" ry="20" fill="#A5D6EA" opacity="0.7"/>
</svg> 