<svg width="400" height="400" xmlns="http://www.w3.org/2000/svg">
  <defs>
    <pattern id="animalPattern" x="0" y="0" width="200" height="200" patternUnits="userSpaceOnUse">
      <!-- Paw Print -->
      <path d="M30,40 C33,35 38,35 40,40 C42,45 37,50 35,45 C33,50 28,45 30,40 Z" fill="#4CAF50" opacity="0.2"/>
      <circle cx="35" cy="50" r="3" fill="#4CAF50" opacity="0.2"/>
      
      <!-- Leaf -->
      <path d="M80,30 Q100,10 120,30 Q100,60 80,30 Z" fill="#81C784" opacity="0.2"/>
      <path d="M85,30 L115,30" stroke="#81C784" stroke-width="1" opacity="0.2"/>
      
      <!-- Elephant -->
      <path d="M160,40 C170,30 180,35 175,45 C190,40 185,55 175,55 C165,55 155,50 160,40 Z" fill="#4CAF50" opacity="0.2"/>
      <circle cx="172" cy="45" r="2" fill="#333333" opacity="0.2"/>
      
      <!-- Bird -->
      <path d="M60,120 L75,100 L90,120 M75,100 L75,130" stroke="#4CAF50" stroke-width="2" opacity="0.2"/>
      
      <!-- Snake -->
      <path d="M130,120 C140,110 150,115 160,105 C170,95 160,85 150,90 C140,95 130,90 120,100" stroke="#4CAF50" stroke-width="3" stroke-linecap="round" fill="none" opacity="0.2"/>
      
      <!-- Butterfly -->
      <path d="M30,150 C40,140 50,145 40,160 C50,175 40,180 30,170 C20,180 10,175 20,160 C10,145 20,140 30,150 Z" fill="#4CAF50" opacity="0.2"/>
      <path d="M30,150 L30,170" stroke="#4CAF50" stroke-width="1" opacity="0.2"/>
    </pattern>
  </defs>
  <rect width="100%" height="100%" fill="url(#animalPattern)"/>
</svg>
