<svg width="400" height="400" xmlns="http://www.w3.org/2000/svg">
  <defs>
    <pattern id="junglePattern" x="0" y="0" width="100" height="100" patternUnits="userSpaceOnUse">
      <!-- Palm Leaf 1 -->
      <path d="M10,10 Q30,0 20,30 Q10,20 10,10 Z" fill="#81C784" opacity="0.15"/>
      
      <!-- Palm Leaf 2 -->
      <path d="M40,20 Q60,10 50,40 Q30,30 40,20 Z" fill="#66BB6A" opacity="0.15"/>
      
      <!-- Fern Leaf -->
      <path d="M70,10 C80,5 90,15 70,40 C50,15 60,5 70,10 Z" fill="#A5D6A7" opacity="0.15"/>
      
      <!-- Vine 1 -->
      <path d="M0,50 C10,55 20,45 30,50 C40,55 50,45 60,50 C70,55 80,45 90,50 C100,55 110,45 120,50" 
            stroke="#66BB6A" stroke-width="1" fill="none" opacity="0.15"/>
      
      <!-- Vine 2 -->
      <path d="M0,70 C15,65 30,75 45,70 C60,65 75,75 90,70" 
            stroke="#A5D6A7" stroke-width="1" fill="none" opacity="0.15"/>
      
      <!-- Tree Trunk -->
      <rect x="80" y="60" width="5" height="40" fill="#8D6E63" opacity="0.15"/>
      
      <!-- Tropical Flower -->
      <circle cx="20" cy="80" r="5" fill="#FFEB3B" opacity="0.15"/>
      <circle cx="20" cy="80" r="3" fill="#FFA000" opacity="0.15"/>
      
      <!-- Leaf Group -->
      <path d="M40,90 Q50,80 60,90 Q50,100 40,90 Z" fill="#81C784" opacity="0.15"/>
      <path d="M45,85 Q55,75 65,85 Q55,95 45,85 Z" fill="#66BB6A" opacity="0.15"/>
    </pattern>
  </defs>
  <rect width="100%" height="100%" fill="url(#junglePattern)"/>
</svg>
