<svg width="500" height="20" viewBox="0 0 500 20" fill="none" xmlns="http://www.w3.org/2000/svg">
  <g opacity="0.3">
    <!-- Paw Pattern 1 -->
    <path d="M30,10 C28,7 24,7 22,10 C20,13 20,17 22,19 C24,21 28,21 30,19 C32,17 32,13 30,10" fill="#4caf50"/>
    <path d="M35,7 C33,4 29,4 27,7 C25,10 25,14 27,16 C29,18 33,18 35,16 C37,14 37,10 35,7" fill="#4caf50"/>
    <path d="M25,7 C23,4 19,4 17,7 C15,10 15,14 17,16 C19,18 23,18 25,16 C27,14 27,10 25,7" fill="#4caf50"/>
    <path d="M28,19 C26,16 22,16 20,19 C18,22 18,26 20,28 C22,30 26,30 28,28 C30,26 30,22 28,19" fill="#4caf50"/>
    <path d="M32,19 C34,16 38,16 40,19 C42,22 42,26 40,28 C38,30 34,30 32,28 C30,26 30,22 32,19" fill="#4caf50"/>
    
    <!-- Paw Pattern 2 -->
    <path d="M80,10 C78,7 74,7 72,10 C70,13 70,17 72,19 C74,21 78,21 80,19 C82,17 82,13 80,10" fill="#4caf50"/>
    <path d="M85,7 C83,4 79,4 77,7 C75,10 75,14 77,16 C79,18 83,18 85,16 C87,14 87,10 85,7" fill="#4caf50"/>
    <path d="M75,7 C73,4 69,4 67,7 C65,10 65,14 67,16 C69,18 73,18 75,16 C77,14 77,10 75,7" fill="#4caf50"/>
    <path d="M78,19 C76,16 72,16 70,19 C68,22 68,26 70,28 C72,30 76,30 78,28 C80,26 80,22 78,19" fill="#4caf50"/>
    <path d="M82,19 C84,16 88,16 90,19 C92,22 92,26 90,28 C88,30 84,30 82,28 C80,26 80,22 82,19" fill="#4caf50"/>
    
    <!-- Paw Pattern 3 -->
    <path d="M130,10 C128,7 124,7 122,10 C120,13 120,17 122,19 C124,21 128,21 130,19 C132,17 132,13 130,10" fill="#4caf50"/>
    <path d="M135,7 C133,4 129,4 127,7 C125,10 125,14 127,16 C129,18 133,18 135,16 C137,14 137,10 135,7" fill="#4caf50"/>
    <path d="M125,7 C123,4 119,4 117,7 C115,10 115,14 117,16 C119,18 123,18 125,16 C127,14 127,10 125,7" fill="#4caf50"/>
    <path d="M128,19 C126,16 122,16 120,19 C118,22 118,26 120,28 C122,30 126,30 128,28 C130,26 130,22 128,19" fill="#4caf50"/>
    <path d="M132,19 C134,16 138,16 140,19 C142,22 142,26 140,28 C138,30 134,30 132,28 C130,26 130,22 132,19" fill="#4caf50"/>
    
    <!-- Paw Pattern 4 -->
    <path d="M180,10 C178,7 174,7 172,10 C170,13 170,17 172,19 C174,21 178,21 180,19 C182,17 182,13 180,10" fill="#4caf50"/>
    <path d="M185,7 C183,4 179,4 177,7 C175,10 175,14 177,16 C179,18 183,18 185,16 C187,14 187,10 185,7" fill="#4caf50"/>
    <path d="M175,7 C173,4 169,4 167,7 C165,10 165,14 167,16 C169,18 173,18 175,16 C177,14 177,10 175,7" fill="#4caf50"/>
    <path d="M178,19 C176,16 172,16 170,19 C168,22 168,26 170,28 C172,30 176,30 178,28 C180,26 180,22 178,19" fill="#4caf50"/>
    <path d="M182,19 C184,16 188,16 190,19 C192,22 192,26 190,28 C188,30 184,30 182,28 C180,26 180,22 182,19" fill="#4caf50"/>
    
    <!-- Paw Pattern 5 -->
    <path d="M230,10 C228,7 224,7 222,10 C220,13 220,17 222,19 C224,21 228,21 230,19 C232,17 232,13 230,10" fill="#4caf50"/>
    <path d="M235,7 C233,4 229,4 227,7 C225,10 225,14 227,16 C229,18 233,18 235,16 C237,14 237,10 235,7" fill="#4caf50"/>
    <path d="M225,7 C223,4 219,4 217,7 C215,10 215,14 217,16 C219,18 223,18 225,16 C227,14 227,10 225,7" fill="#4caf50"/>
    <path d="M228,19 C226,16 222,16 220,19 C218,22 218,26 220,28 C222,30 226,30 228,28 C230,26 230,22 228,19" fill="#4caf50"/>
    <path d="M232,19 C234,16 238,16 240,19 C242,22 242,26 240,28 C238,30 234,30 232,28 C230,26 230,22 232,19" fill="#4caf50"/>
    
    <!-- Paw Pattern 6 -->
    <path d="M280,10 C278,7 274,7 272,10 C270,13 270,17 272,19 C274,21 278,21 280,19 C282,17 282,13 280,10" fill="#4caf50"/>
    <path d="M285,7 C283,4 279,4 277,7 C275,10 275,14 277,16 C279,18 283,18 285,16 C287,14 287,10 285,7" fill="#4caf50"/>
    <path d="M275,7 C273,4 269,4 267,7 C265,10 265,14 267,16 C269,18 273,18 275,16 C277,14 277,10 275,7" fill="#4caf50"/>
    <path d="M278,19 C276,16 272,16 270,19 C268,22 268,26 270,28 C272,30 276,30 278,28 C280,26 280,22 278,19" fill="#4caf50"/>
    <path d="M282,19 C284,16 288,16 290,19 C292,22 292,26 290,28 C288,30 284,30 282,28 C280,26 280,22 282,19" fill="#4caf50"/>
    
    <!-- Paw Pattern 7 -->
    <path d="M330,10 C328,7 324,7 322,10 C320,13 320,17 322,19 C324,21 328,21 330,19 C332,17 332,13 330,10" fill="#4caf50"/>
    <path d="M335,7 C333,4 329,4 327,7 C325,10 325,14 327,16 C329,18 333,18 335,16 C337,14 337,10 335,7" fill="#4caf50"/>
    <path d="M325,7 C323,4 319,4 317,7 C315,10 315,14 317,16 C319,18 323,18 325,16 C327,14 327,10 325,7" fill="#4caf50"/>
    <path d="M328,19 C326,16 322,16 320,19 C318,22 318,26 320,28 C322,30 326,30 328,28 C330,26 330,22 328,19" fill="#4caf50"/>
    <path d="M332,19 C334,16 338,16 340,19 C342,22 342,26 340,28 C338,30 334,30 332,28 C330,26 330,22 332,19" fill="#4caf50"/>
    
    <!-- Paw Pattern 8 -->
    <path d="M380,10 C378,7 374,7 372,10 C370,13 370,17 372,19 C374,21 378,21 380,19 C382,17 382,13 380,10" fill="#4caf50"/>
    <path d="M385,7 C383,4 379,4 377,7 C375,10 375,14 377,16 C379,18 383,18 385,16 C387,14 387,10 385,7" fill="#4caf50"/>
    <path d="M375,7 C373,4 369,4 367,7 C365,10 365,14 367,16 C369,18 373,18 375,16 C377,14 377,10 375,7" fill="#4caf50"/>
    <path d="M378,19 C376,16 372,16 370,19 C368,22 368,26 370,28 C372,30 376,30 378,28 C380,26 380,22 378,19" fill="#4caf50"/>
    <path d="M382,19 C384,16 388,16 390,19 C392,22 392,26 390,28 C388,30 384,30 382,28 C380,26 380,22 382,19" fill="#4caf50"/>
    
    <!-- Paw Pattern 9 -->
    <path d="M430,10 C428,7 424,7 422,10 C420,13 420,17 422,19 C424,21 428,21 430,19 C432,17 432,13 430,10" fill="#4caf50"/>
    <path d="M435,7 C433,4 429,4 427,7 C425,10 425,14 427,16 C429,18 433,18 435,16 C437,14 437,10 435,7" fill="#4caf50"/>
    <path d="M425,7 C423,4 419,4 417,7 C415,10 415,14 417,16 C419,18 423,18 425,16 C427,14 427,10 425,7" fill="#4caf50"/>
    <path d="M428,19 C426,16 422,16 420,19 C418,22 418,26 420,28 C422,30 426,30 428,28 C430,26 430,22 428,19" fill="#4caf50"/>
    <path d="M432,19 C434,16 438,16 440,19 C442,22 442,26 440,28 C438,30 434,30 432,28 C430,26 430,22 432,19" fill="#4caf50"/>
    
    <!-- Paw Pattern 10 -->
    <path d="M480,10 C478,7 474,7 472,10 C470,13 470,17 472,19 C474,21 478,21 480,19 C482,17 482,13 480,10" fill="#4caf50"/>
    <path d="M485,7 C483,4 479,4 477,7 C475,10 475,14 477,16 C479,18 483,18 485,16 C487,14 487,10 485,7" fill="#4caf50"/>
    <path d="M475,7 C473,4 469,4 467,7 C465,10 465,14 467,16 C469,18 473,18 475,16 C477,14 477,10 475,7" fill="#4caf50"/>
    <path d="M478,19 C476,16 472,16 470,19 C468,22 468,26 470,28 C472,30 476,30 478,28 C480,26 480,22 478,19" fill="#4caf50"/>
    <path d="M482,19 C484,16 488,16 490,19 C492,22 492,26 490,28 C488,30 484,30 482,28 C480,26 480,22 482,19" fill="#4caf50"/>
  </g>
</svg> 