<svg width="100" height="100" viewBox="0 0 100 100" xmlns="http://www.w3.org/2000/svg">
  <circle cx="50" cy="50" r="50" fill="#E8F5E9"/>
  <circle cx="50" cy="50" r="45" fill="#4CAF50"/>
  
  <!-- Eyes -->
  <circle cx="35" cy="40" r="8" fill="white"/>
  <circle cx="65" cy="40" r="8" fill="white"/>
  <circle cx="35" cy="40" r="4" fill="#333"/>
  <circle cx="65" cy="40" r="4" fill="#333"/>
  
  <!-- Highlight in eyes -->
  <circle cx="33" cy="38" r="2" fill="white"/>
  <circle cx="63" cy="38" r="2" fill="white"/>
  
  <!-- Nose -->
  <path d="M50 50 L45 60 H55 Z" fill="#333"/>
  
  <!-- Whiskers -->
  <line x1="30" y1="55" x2="15" y2="50" stroke="#333" stroke-width="1.5"/>
  <line x1="30" y1="55" x2="15" y2="55" stroke="#333" stroke-width="1.5"/>
  <line x1="30" y1="55" x2="15" y2="60" stroke="#333" stroke-width="1.5"/>
  
  <line x1="70" y1="55" x2="85" y2="50" stroke="#333" stroke-width="1.5"/>
  <line x1="70" y1="55" x2="85" y2="55" stroke="#333" stroke-width="1.5"/>
  <line x1="70" y1="55" x2="85" y2="60" stroke="#333" stroke-width="1.5"/>
  
  <!-- Mouth -->
  <path d="M45 65 Q50 70 55 65" stroke="#333" stroke-width="1.5" fill="none"/>
  
  <!-- Ears -->
  <path d="M25 25 Q35 10 50 25 L35 35 Z" fill="#2E7D32"/>
  <path d="M75 25 Q65 10 50 25 L65 35 Z" fill="#2E7D32"/>
</svg> 